<svg xmlns="http://www.w3.org/2000/svg" xmlns:xlink="http://www.w3.org/1999/xlink" version="1.1" id="Layer_1" x="0px" y="0px" width="100px" height="100px" viewBox="0 0 100 100" enable-background="new 0 0 100 100" xml:space="preserve">
<g>
	<g>
		<path d="M52.429,22.427c-0.058-0.005-0.119-0.01-0.178-0.01c-1.591,0-2.689,1.288-2.689,2.876c0,1.567,0.608,2.84,2.999,2.872    v0.01c11.354,0.156,21.29,9.856,21.29,21.757c0,11.999-9.855,21.9-21.854,21.9c-11.449,0-20.967-8.64-21.801-19.995h5.054    l-7.799-12.962l-7.797,12.962h4.782c0.847,14.342,12.841,25.746,27.466,25.746c15.173,0,27.517-12.405,27.517-27.583    C79.418,35.008,67.358,22.714,52.429,22.427z"/>
		<path d="M54.953,35.828c0-1.353-1.088-2.514-2.438-2.514h-0.526c-1.353,0-2.413,1.161-2.413,2.514v14.466l-7.083,7.072    c-1.049,1.045-0.991,2.741-0.005,3.781c0.993,1.054,2.732,1.054,3.779,0l7.825-7.828c0.061-0.065,0.11-0.131,0.168-0.19    c0.431-0.444,0.694-1.048,0.694-1.714V35.828z"/>
	</g>
</g>
</svg>