<svg xmlns="http://www.w3.org/2000/svg" xmlns:xlink="http://www.w3.org/1999/xlink" version="1.1" id="Layer_1" x="0px" y="0px" width="93.3333333333px" height="100px" viewBox="0 0 168 180" enable-background="new 0 0 168 180" xml:space="preserve">
<path d="M87.99,152.44c-35.414,0-64.227-28.812-64.227-64.228h8.067c0,30.966,25.192,56.16,56.159,56.16s56.161-25.194,56.161-56.16  c0-30.966-25.194-56.16-56.161-56.16v-8.068c35.415,0,64.229,28.812,64.229,64.228S123.405,152.44,87.99,152.44z"/>
<polygon points="17.44,94.521 27.798,79.617 38.154,94.521 "/>
<path d="M87.599,41.246c-3.262,0-5.906,2.645-5.906,5.907v41.106c0,3.262,2.645,5.907,5.906,5.907s5.905-2.646,5.905-5.907V47.153  C93.504,43.891,90.86,41.246,87.599,41.246z"/>
<path d="M55.835,97.553c0.927,3.126,4.213,4.91,7.34,3.984l26.152-7.75c3.127-0.926,4.914-4.212,3.986-7.339  c-0.925-3.129-4.212-4.912-7.338-3.986l-26.152,7.75C56.695,91.137,54.909,94.424,55.835,97.553z"/>
</svg>